<!-- InstaHistogram Icon Template -->
<svg xmlns="http://www.w3.org/2000/svg" width="128" height="128" viewBox="0 0 128 128">
  <!-- 背景渐变 -->
  <defs>
    <linearGradient id="bgGradient" x1="0%" y1="0%" x2="100%" y2="100%">
      <stop offset="0%" style="stop-color:#667eea;stop-opacity:1" />
      <stop offset="100%" style="stop-color:#764ba2;stop-opacity:1" />
    </linearGradient>
    <linearGradient id="histogramGradient" x1="0%" y1="100%" x2="0%" y2="0%">
      <stop offset="0%" style="stop-color:#ff3040;stop-opacity:0.8" />
      <stop offset="33%" style="stop-color:#40ff30;stop-opacity:0.8" />
      <stop offset="66%" style="stop-color:#3040ff;stop-opacity:0.8" />
      <stop offset="100%" style="stop-color:#ffffff;stop-opacity:0.9" />
    </linearGradient>
  </defs>
  
  <!-- 背景圆角矩形 -->
  <rect x="8" y="8" width="112" height="112" rx="24" ry="24" fill="url(#bgGradient)" stroke="#ffffff" stroke-width="2"/>
  
  <!-- 直方图图标 -->
  <g transform="translate(24, 32)">
    <!-- 网格线 -->
    <g stroke="#ffffff" stroke-width="0.5" opacity="0.3">
      <line x1="0" y1="16" x2="80" y2="16"/>
      <line x1="0" y1="32" x2="80" y2="32"/>
      <line x1="0" y1="48" x2="80" y2="48"/>
      <line x1="20" y1="0" x2="20" y2="64"/>
      <line x1="40" y1="0" x2="40" y2="64"/>
      <line x1="60" y1="0" x2="60" y2="64"/>
    </g>
    
    <!-- 直方图柱状图 -->
    <g fill="url(#histogramGradient)">
      <!-- 模拟直方图数据 -->
      <rect x="2" y="45" width="3" height="19"/>
      <rect x="6" y="40" width="3" height="24"/>
      <rect x="10" y="35" width="3" height="29"/>
      <rect x="14" y="25" width="3" height="39"/>
      <rect x="18" y="20" width="3" height="44"/>
      <rect x="22" y="15" width="3" height="49"/>
      <rect x="26" y="8" width="3" height="56"/>
      <rect x="30" y="5" width="3" height="59"/>
      <rect x="34" y="10" width="3" height="54"/>
      <rect x="38" y="18" width="3" height="46"/>
      <rect x="42" y="28" width="3" height="36"/>
      <rect x="46" y="32" width="3" height="32"/>
      <rect x="50" y="38" width="3" height="26"/>
      <rect x="54" y="42" width="3" height="22"/>
      <rect x="58" y="48" width="3" height="16"/>
      <rect x="62" y="52" width="3" height="12"/>
      <rect x="66" y="55" width="3" height="9"/>
      <rect x="70" y="58" width="3" height="6"/>
      <rect x="74" y="60" width="3" height="4"/>
    </g>
    
    <!-- 基线 -->
    <line x1="0" y1="64" x2="80" y2="64" stroke="#ffffff" stroke-width="2"/>
  </g>
  
  <!-- 相机图标（小） -->
  <g transform="translate(88, 88) scale(0.8)">
    <circle cx="12" cy="12" r="8" fill="none" stroke="#ffffff" stroke-width="2"/>
    <circle cx="12" cy="12" r="3" fill="#ffffff"/>
    <rect x="4" y="4" width="16" height="16" rx="2" ry="2" fill="none" stroke="#ffffff" stroke-width="1.5"/>
    <rect x="6" y="2" width="4" height="2" rx="1" ry="1" fill="#ffffff"/>
  </g>
</svg>
